<svg width="60" height="60" viewBox="0 0 60 60" fill="none" xmlns="http://www.w3.org/2000/svg">
<circle cx="30" cy="30" r="30" fill="#F6CCFD"/>
<path d="M22.9 22.8047C22.9 20.1567 23.7195 17.7727 25.0216 16.0592C26.3237 14.3457 28.09 13.3214 30 13.3214C31.91 13.3214 33.6763 14.3457 34.9784 16.0592C36.2805 17.7727 37.1 20.1567 37.1 22.8047C37.1 25.4527 36.2805 27.8368 34.9784 29.5503C33.6763 31.2637 31.91 32.2881 30 32.2881C28.09 32.2881 26.3237 31.2637 25.0216 29.5503C23.7195 27.8368 22.9 25.4527 22.9 22.8047ZM15.4 40.5948C15.4 36.5933 18.3312 33.3868 21.9881 33.1C24.0614 35.4946 26.8875 37.0414 30 37.0414C33.1126 37.0414 35.9387 35.4946 38.012 33.0999C41.7027 33.3857 44.6 36.5912 44.6 40.5948V44.1481H15.4V40.5948Z" fill="black" stroke="black" stroke-width="0.8"/>
</svg>
